EMG
version=1
nRows=20
nColumns=17
inDegrees=no
endheader
time	EMG01_right_gast_med	EMG02_right_glut_max	EMG03_left_gast_med	EMG04_left_glut_max	EMG05_right_glut_med	EMG06_right_bic_fem	EMG07_right_rect_fem	EMG08_right_vast_lat	EMG09_right_vast_med	EMG10_right_tens_fasc_lat	EMG11_left_glut_med	EMG12_left_bic_fem	EMG13_left_rect_fem	EMG14_left_vast_lat	EMG15_left_vast_med	EMG16_left_tens_fasc_lat
      0.00000000	     33.45317459	    -55.54772186	    -68.00939941	    -96.57678223	     73.72498322	    -38.15177536	      1.22661376	     17.75567818	     17.74492073	    -29.18189621	     -9.42267418	    -12.23407650	      0.74805611	    -15.03047562	    -44.11088562	   -108.42614746
      0.01000000	     24.25267982	    -32.28547668	     15.59795761	    -84.88507080	     66.64326477	    -11.14323997	     -5.14574385	     17.27624130	     13.79672146	    -15.35287762	     10.09838676	     -2.01498723	     22.64939117	      1.25750053	    -56.38872147	     -9.96794510
      0.02000000	     13.84831715	    -64.77667236	    187.97566223	    -77.36701965	     50.67259216	      4.26173878	     -3.66807222	     13.15402889	      9.69795322	      9.57498741	      3.15781450	     31.96601295	     -1.95914936	      2.14393020	    -38.69219971	    111.48477173
      0.03000000	      7.49466228	   -112.34480286	    128.58119202	    -75.16843414	     50.37714767	     25.74796295	     -0.98900998	     21.29070854	      6.78864908	     28.03624344	    -29.51177979	    -17.19887733	     15.70939255	     -1.41096914	     -9.86135387	    153.33708191
      0.04000000	      3.71383333	   -147.87454224	     63.79724121	    -70.43027496	     81.00461578	     -2.22736812	     -2.18058062	     11.04174328	      4.15822315	     13.67869568	     26.22602081	    -22.04982376	    -11.57523918	    -24.63827515	    -17.48163605	     99.31568909
      0.05000000	      2.84530973	   -114.31767273	     15.66586494	    -38.14553452	     63.52562332	    -28.06245995	     -6.02549028	     20.25930023	     -3.02973533	     18.84256363	    -61.63453293	     40.38078690	     27.18557167	      4.84538412	    -23.08885193	      0.22087359
      0.06000000	      4.44855404	    -74.06549072	    263.21362305	     10.16810894	     45.59112549	    -15.94146824	     -6.81174231	     21.14698219	      8.82590199	      2.35288811	      6.46981621	     -2.12186909	    -44.65715027	    -15.62544346	    -57.09804153	   -127.47373962
      0.07000000	      5.84589100	    -11.89489365	    -13.52305031	     44.10065079	     54.33607864	     45.11764526	    -11.58690071	     13.44419289	     -4.28902626	      9.74891376	      6.16966963	     77.98342133	     10.72677231	      5.45988703	    -44.39162064	     35.59030151
      0.08000000	      4.12617493	     24.40505791	      6.82616520	     52.39001846	    124.48793793	   -108.45442200	     -6.38831139	     27.38829803	      2.41271234	      6.48428535	    -10.98002625	     -2.65926194	    -10.43848515	    -18.88985252	    -39.19681549	     51.81806564
      0.09000000	     -1.90874171	     27.18420982	    172.45767212	     35.91507721	    154.33850098	    -19.53578949	     -3.80559444	    -30.24043846	      1.40250719	      4.11242867	      3.25562906	     52.81988907	      6.25555944	     -3.92065978	    -20.60745811	     -1.61850691
      0.10000000	     -8.08172035	     17.07020187	     -2.35665035	     17.70717239	     94.54209137	    -12.97428608	      2.13622665	    -16.09858513	    -21.62145996	     10.39467335	      6.36537218	    -10.74832630	    -21.37321663	    -19.06496429	      2.14896154	    -51.54819489
      0.11000000	    -15.47400856	     20.53361511	    -51.65184021	    -11.26847839	     -6.49940681	    -49.61710358	      1.49774706	    -14.66449356	    -39.25320053	     -7.86912441	     -4.51073599	    -17.06421280	      2.70495939	      0.31345645	     14.93980980	    -78.21586609
      0.12000000	     -7.76295662	    -48.79893112	   -140.78338623	    -40.86774826	     47.22980118	      9.46483803	      2.54076719	     -6.42002535	    -32.74866486	      0.25881422	     -6.62759590	    -25.56799889	    -14.18012524	     -0.31449825	     25.22313690	    -78.73284912
      0.13000000	     -8.21744537	    -65.58515930	    256.17529297	    -47.18460083	     15.10195923	    -25.08997726	     10.57434082	    -11.24188709	    -33.81416321	     11.62887383	    -43.80746460	      6.37681484	     -2.16232133	     -8.27121925	     40.05485916	    -82.87532806
      0.14000000	    -14.47042561	    -92.90554810	    192.17633057	    -42.61923599	     21.30530548	      7.75868320	      5.44852400	     31.14798355	    -14.41218948	      1.83332729	     -9.30445576	     -6.09024429	    -16.75536346	     -3.25817013	     57.71913147	    -44.74106216
      0.15000000	    -25.68623352	    -63.22578812	   -370.49725342	    -53.92525864	    -47.32810593	     -2.36534476	    -28.35628891	    -32.98471832	     25.48999023	     10.06252289	     -2.23648500	     52.00249481	     -5.68715715	     22.90119743	     64.10556030	    -33.17475128
      0.16000000	    -29.86097908	    -19.12859344	    263.77752686	    -59.52304840	    -58.73847198	     -6.13857174	     51.94555664	     59.42388153	    -21.56929588	     29.57652283	      0.68386829	    -45.24730301	     -7.66515017	    -63.37776566	    -16.42424011	     -4.80155468
      0.17000000	    -25.25134468	      9.85205936	   1070.49890137	    -64.50231934	    -91.45712280	      5.16647100	    -93.74536133	   -156.48889160	    -20.89499855	    -28.26690674	     10.92183590	     12.49654198	      0.90683556	     -6.63936949	     30.64727783	     -5.89425755
      0.18000000	      0.26441288	     51.62039948	   -679.10424805	    -43.96484375	   -155.93463135	    -22.32004929	    -45.32569122	     86.40956116	    -28.96294403	     -3.19887495	     -2.93747044	    -26.61293030	     -0.42093551	    -11.03924751	     11.96673203	      2.22508860
      0.19000000	      2.84486198	     46.60765457	   -100.47709656	    -40.94785309	   -176.35493469	    -15.24468231	     23.50267792	    -21.41272354	     18.36873245	    -18.50999641	      7.84762049	     44.19066238	     -2.88282084	     14.40631485	    -12.59109783	     -1.37473547
